<svg width="538" height="620" viewBox="0 0 538 620" fill="none" xmlns="http://www.w3.org/2000/svg">
<path d="M2.04296 75.3268C2.09615 72.744 2.72708 70.206 3.88942 67.899C5.05175 65.5919 6.71599 63.5745 8.75996 61.9948L20.122 52.7888C24.3782 49.4381 29.6524 47.6439 35.069 47.7038H57.885C63.878 47.7816 69.7042 45.7298 74.326 41.9138L91.687 27.1538C95.9934 23.5964 101.423 21.6828 107.008 21.7538H481.591C487.176 21.6828 492.606 23.5964 496.912 27.1538L515.83 43.2378C517.78 44.809 519.36 46.7909 520.457 49.0424C521.554 51.2939 522.141 53.7596 522.176 56.2638V409.396H523.76V56.2638C523.722 53.5765 523.092 50.9307 521.915 48.5146C520.738 46.0986 519.043 43.9718 516.95 42.2858L498.032 26.2028C493.41 22.3869 487.584 20.3352 481.591 20.4128H107.008C101.015 20.3352 95.1888 22.3869 90.567 26.2028L73.207 40.9628C68.9 44.52 63.4705 46.4336 57.885 46.3628H35.072C29.2595 46.2981 23.5999 48.2237 19.033 51.8198L7.66996 61.0208C5.47673 62.7161 3.69082 64.881 2.44322 67.3564C1.19561 69.8319 0.517959 72.5553 0.459961 75.3268L0.459961 409.396H2.04296V75.3268Z" fill="white"/>
<path d="M13.1919 82.7911C13.2427 80.3283 13.8445 77.9082 14.953 75.7085C16.0615 73.5087 17.6487 71.5852 19.5979 70.0791L30.2489 61.4501C34.3065 58.255 39.3348 56.544 44.4989 56.6011H65.88C71.4091 56.6738 76.7846 54.7814 81.049 51.2611L97.3159 37.4271C101.422 34.0379 106.598 32.2154 111.922 32.2841H472.642C477.966 32.2151 483.142 34.0376 487.249 37.4271L504.98 52.5031C506.839 54.0009 508.345 55.8901 509.391 58.0363C510.437 60.1826 510.996 62.5329 511.03 64.9201V409.396H511.822V64.9191C511.787 62.4404 511.205 60 510.119 57.7717C509.033 55.5434 507.469 53.582 505.538 52.0271L487.807 36.9511C483.544 33.4314 478.17 31.5387 472.642 31.6101H111.922C106.394 31.5387 101.02 33.4314 96.757 36.9511L80.4849 50.7861C76.3802 54.1741 71.2069 55.9964 65.8849 55.9291H44.4959C39.1346 55.8693 33.9141 57.6457 29.7019 60.9631L19.0489 69.5921C17.0249 71.156 15.3769 73.1534 14.226 75.4376C13.0751 77.7218 12.4504 80.2348 12.3979 82.7921V409.396H13.1899L13.1919 82.7911Z" fill="white"/>
<path d="M122.556 20.75L142.24 4.015C145.268 1.52751 149.075 0.186322 152.993 0.227004H449.329C453.248 0.185634 457.055 1.5265 460.083 4.014L480.757 21.59L122.556 20.75Z" fill="white"/>
<path d="M537.54 100.417C537.505 98.3418 537.015 96.2996 536.107 94.4338C535.198 92.568 533.891 90.9238 532.279 89.6169L522.503 81.3049L522.831 409.393H537.54V100.417Z" fill="white"/>
<path d="M2.04296 564.856C2.09571 567.439 2.72642 569.978 3.88877 572.285C5.05113 574.593 6.7156 576.611 8.75996 578.191L20.122 587.397C24.3779 590.748 29.6522 592.543 35.069 592.483H57.885C63.878 592.405 69.7042 594.457 74.326 598.273L91.686 613.027C95.9922 616.585 101.422 618.498 107.007 618.427H481.591C487.176 618.498 492.606 616.585 496.912 613.027L515.83 596.944C517.78 595.373 519.36 593.391 520.457 591.139C521.554 588.888 522.141 586.422 522.176 583.918V409.397H523.76V583.927C523.722 586.614 523.092 589.26 521.915 591.676C520.738 594.092 519.043 596.219 516.95 597.905L498.033 613.988C493.411 617.804 487.585 619.856 481.592 619.778H107.008C101.015 619.856 95.1888 617.804 90.567 613.988L73.207 599.227C68.9 595.67 63.4705 593.756 57.885 593.827H35.072C29.2595 593.892 23.5999 591.966 19.033 588.37L7.66996 579.165C5.47613 577.469 3.68983 575.304 2.44219 572.828C1.19455 570.352 0.51723 567.628 0.459961 564.856L0.459961 409.397H2.04296V564.856Z" fill="white"/>
<path d="M13.1919 557.396C13.243 559.859 13.8449 562.279 14.9534 564.479C16.0619 566.679 17.6489 568.603 19.5979 570.109L30.2489 578.738C34.3069 581.932 39.3351 583.642 44.4989 583.585H65.88C71.4094 583.513 76.7849 585.406 81.049 588.927L97.3199 602.762C101.426 606.151 106.602 607.974 111.926 607.905H472.646C477.968 607.972 483.141 606.15 487.246 602.762L504.977 587.686C506.836 586.188 508.342 584.299 509.388 582.153C510.434 580.007 510.993 577.656 511.027 575.269V409.397H511.819V575.268C511.784 577.747 511.203 580.187 510.117 582.416C509.031 584.644 507.467 586.606 505.537 588.161L487.806 603.236C483.543 606.756 478.169 608.648 472.641 608.577H111.922C106.394 608.648 101.02 606.756 96.757 603.236L80.4849 589.402C76.3805 586.014 71.207 584.191 65.8849 584.259H44.4959C39.1348 584.319 33.9144 582.544 29.7019 579.227L19.0489 570.596C17.0251 569.032 15.3772 567.035 14.2263 564.75C13.0754 562.466 12.4506 559.953 12.3979 557.396V409.396H13.1899L13.1919 557.396Z" fill="white"/>
<path d="M504.465 50.7269L486.734 35.6539C482.543 32.2109 477.273 30.3549 471.849 30.4119H111.129C105.705 30.3549 100.435 32.2109 96.2439 35.6539L79.9729 49.4879C75.7817 52.9296 70.5119 54.7846 65.0889 54.7269H43.7039C38.4427 54.6772 33.3211 56.4198 29.1819 59.6679L18.5319 68.2999C16.5414 69.8313 14.921 71.791 13.7907 74.0338C12.6605 76.2765 12.0495 78.7449 12.0029 81.2559V407.861H510.631V63.3839C510.59 60.9519 510.016 58.5585 508.951 56.3718C507.886 54.1852 506.355 52.2584 504.465 50.7269Z" fill="black"/>
<path d="M12.0029 555.86C12.0495 558.371 12.6605 560.839 13.7905 563.082C14.9205 565.325 16.5407 567.284 18.5309 568.816L29.1809 577.445C33.3197 580.694 38.4415 582.436 43.7029 582.386H65.0879C70.5105 582.329 75.7799 584.183 79.9709 587.625L96.2439 601.459C100.435 604.902 105.705 606.758 111.129 606.701H471.849C477.273 606.758 482.544 604.902 486.735 601.459L504.466 586.384C506.355 584.852 507.886 582.926 508.952 580.74C510.017 578.553 510.59 576.16 510.632 573.729V407.861H12.0029V555.86Z" fill="black"/>
<path d="M537.54 539.769C537.505 541.844 537.015 543.886 536.107 545.752C535.198 547.618 533.891 549.262 532.279 550.569L522.503 558.881L522.831 409.4H537.54V539.769Z" fill="white"/>
</svg>
