<svg width="34" height="30" viewBox="0 0 34 30" fill="none" xmlns="http://www.w3.org/2000/svg">
<path d="M30.7249 4.40409C30.6357 3.27875 30.1261 2.22825 29.2974 1.46166C28.4687 0.695066 27.3818 0.268585 26.2529 0.26709H5.26093C4.07131 0.268413 2.93079 0.741575 2.0896 1.58276C1.24841 2.42395 0.775249 3.56447 0.773926 4.75409L0.773926 25.5111C0.775249 26.7007 1.24841 27.8412 2.0896 28.6824C2.93079 29.5236 4.07131 29.9968 5.26093 29.9981H29.5129C30.7025 29.9968 31.8431 29.5236 32.6843 28.6824C33.5254 27.8412 33.9986 26.7007 33.9999 25.5111V8.72309C33.9986 7.74497 33.6781 6.79399 33.0873 6.01452C32.4964 5.23504 31.6673 4.66962 30.7259 4.40409H30.7249ZM5.26093 2.36309H26.2539C26.7979 2.36369 27.3254 2.54951 27.7497 2.88995C28.1739 3.2304 28.4695 3.70517 28.5879 4.23609H5.26093C4.4143 4.23542 3.58497 4.47579 2.86993 4.92909V4.75409C2.87072 4.1202 3.12288 3.5125 3.57111 3.06427C4.01934 2.61605 4.62704 2.36388 5.26093 2.36309ZM29.5129 27.9041H5.26093C4.62738 27.9022 4.02041 27.6493 3.57299 27.2008C3.12557 26.7522 2.87419 26.1446 2.87393 25.5111V8.72309C2.87472 8.0892 3.12688 7.4815 3.57511 7.03327C4.02334 6.58505 4.63104 6.33288 5.26493 6.33209H29.5129C30.1468 6.33288 30.7545 6.58505 31.2027 7.03327C31.651 7.4815 31.9031 8.0892 31.9039 8.72309V12.3811H25.2209C23.9471 12.3811 22.7254 12.8871 21.8247 13.7879C20.924 14.6886 20.4179 15.9103 20.4179 17.1841C20.4179 18.4579 20.924 19.6796 21.8247 20.5803C22.7254 21.4811 23.9471 21.9871 25.2209 21.9871H31.9039V25.5111C31.9031 26.145 31.651 26.7527 31.2027 27.2009C30.7545 27.6491 30.1468 27.9013 29.5129 27.9021V27.9041ZM31.9039 19.8901H25.2209C24.5121 19.8765 23.837 19.5853 23.3405 19.0792C22.8441 18.5732 22.566 17.8925 22.566 17.1836C22.566 16.4747 22.8441 15.794 23.3405 15.2879C23.837 14.7819 24.5121 14.4907 25.2209 14.4771H31.9039V19.8901Z" fill="white"/>
<path d="M25.61 18.3539C26.2126 18.3539 26.701 17.8654 26.701 17.2629C26.701 16.6603 26.2126 16.1719 25.61 16.1719C25.0075 16.1719 24.519 16.6603 24.519 17.2629C24.519 17.8654 25.0075 18.3539 25.61 18.3539Z" fill="white"/>
</svg>
